<svg width="156" height="83" viewBox="0 0 156 83" fill="none" xmlns="http://www.w3.org/2000/svg">
<path d="M44.6425 63.6489V19.9389C44.6425 18.7247 44.9339 17.7777 45.5167 17.0977C46.1481 16.3692 46.9494 16.005 47.9208 16.005H60.0867C67.8088 16.005 73.6611 17.9477 77.6436 21.833C81.6746 25.7183 83.6901 31.8377 83.6901 40.1912C83.6901 58.0637 76.0651 67 60.8152 67H48.3579C45.881 67 44.6425 65.883 44.6425 63.6489ZM58.6297 29.8465V51.6286C58.6297 52.6485 58.7026 53.3042 58.8482 53.5956C58.994 53.8384 59.4311 53.9598 60.1596 53.9598C62.8307 53.9598 64.8462 52.9642 66.2061 50.973C67.6145 48.9818 68.3188 45.6792 68.3188 41.0654C68.3188 36.403 67.5903 33.3676 66.1333 31.9591C64.7248 30.5507 62.4665 29.8465 59.3582 29.8465H58.6297Z" fill="#FF6161"/>
<path d="M97.037 66.5629C97.037 66.9514 94.8029 67.1457 90.3348 67.1457C85.9152 67.1457 83.7055 66.9757 83.7055 66.6357V30.8664C83.7055 30.5264 85.9152 30.3564 90.3348 30.3564C94.8029 30.3564 97.037 30.5021 97.037 30.7936V66.5629ZM97.037 26.4954C97.037 26.8354 94.8029 27.0053 90.3348 27.0053C85.9152 27.0053 83.7055 26.8596 83.7055 26.5683V16.0778C83.7055 15.5922 85.9152 15.3493 90.3348 15.3493C94.8029 15.3493 97.037 15.495 97.037 15.7865V26.4954ZM110.109 48.9332C110.109 53.6927 111.906 56.0725 115.5 56.0725C117.831 56.0725 119.774 55.6111 121.328 54.6883C122.056 54.6883 122.639 55.9511 123.076 58.4765C123.562 60.9534 123.805 62.6533 123.805 63.576C123.805 64.4502 123.683 65.033 123.441 65.3244C120.867 66.9271 117.345 67.7285 112.877 67.7285C108.409 67.7285 104.597 66.0772 101.44 62.7747C98.3316 59.4236 96.7775 54.8826 96.7775 49.1518C96.7775 43.3723 98.3073 38.7099 101.367 35.1646C104.475 31.6192 108.579 29.8465 113.679 29.8465C118.827 29.8465 122.396 31.0849 124.388 33.5618C124.825 34.0961 125.043 34.8974 125.043 35.9659C125.043 36.9858 124.849 38.2485 124.46 39.7541C123.586 42.8624 122.445 44.6593 121.037 45.145C120.842 45.1936 120.551 45.2178 120.162 45.2178C119.822 45.2178 119.385 44.9264 118.851 44.3436C116.957 42.4495 115.427 41.5025 114.261 41.5025C113.144 41.5025 112.173 42.0853 111.347 43.2509C110.522 44.4165 110.109 46.3106 110.109 48.9332ZM151.111 65.033C148.051 66.83 144.117 67.7285 139.309 67.7285C134.501 67.7285 130.446 66.1015 127.143 62.8475C123.841 59.545 122.19 55.004 122.19 49.2246C122.19 43.3966 123.768 38.7099 126.925 35.1646C130.13 31.6192 134.161 29.8465 139.018 29.8465C143.875 29.8465 147.614 31.0849 150.237 33.5618C152.908 36.0387 154.244 39.0499 154.244 42.5952C154.244 50.463 149.727 54.3969 140.694 54.3969H135.667C135.667 55.8539 136.055 56.8738 136.832 57.4566C137.658 57.9909 138.848 58.258 140.402 58.258C143.802 58.258 147.031 57.4809 150.091 55.9268C150.14 55.8782 150.358 56.2182 150.747 56.9467C151.912 59.0351 152.495 60.8077 152.495 62.2647C152.495 63.6732 152.034 64.5959 151.111 65.033ZM142.005 43.9794C142.005 41.9396 141.009 40.9197 139.018 40.9197C138.095 40.9197 137.294 41.2111 136.614 41.7939C135.983 42.3281 135.667 43.1295 135.667 44.1979V46.4563H139.601C141.203 46.4563 142.005 45.6307 142.005 43.9794Z" fill="#333333"/>
<path d="M0 16H51V67H0V16Z" fill="#FF6161"/>
<path d="M25.4761 20.4589C24.8609 20.4589 24.2456 20.5968 23.7691 20.8725L8.55347 29.674C7.60021 30.2254 7.60021 31.0974 8.55347 31.6488L23.7691 40.4503C24.7224 41.0017 26.2297 41.0017 27.1829 40.4503L42.3985 31.6488C43.3518 31.0975 43.3518 30.2254 42.3985 29.6741L27.1829 20.8726C26.7063 20.5967 26.0912 20.4589 25.4761 20.4589ZM13.7906 28.6876C13.7907 28.6876 13.7908 28.6876 13.7908 28.6876C14.586 28.7083 15.3393 28.9051 15.9021 29.2391C16.4989 29.5933 16.8342 30.0736 16.8342 30.5745C16.8342 31.0754 16.4988 31.5558 15.9019 31.91C15.305 32.2641 14.4954 32.4631 13.6513 32.4631C12.8071 32.4631 11.9976 32.2641 11.4007 31.9099C10.9472 31.6408 10.6413 31.2967 10.5231 30.9226C10.4049 30.5486 10.4799 30.1621 10.7382 29.8138C10.9966 29.4654 11.4262 29.1716 11.9709 28.9706C12.5155 28.7697 13.1498 28.6711 13.7905 28.6877L13.7906 28.6876ZM25.5684 28.712C26.1938 28.7175 26.8026 28.8322 27.3187 29.0418C27.8349 29.2514 28.2355 29.5466 28.4706 29.8905C28.7057 30.2344 28.7649 30.6117 28.6407 30.9754C28.5165 31.3392 28.2145 31.6731 27.7723 31.9356C27.4778 32.1136 27.1267 32.2553 26.7394 32.3524C26.3521 32.4494 25.9362 32.5 25.5157 32.5012C25.0953 32.5023 24.6786 32.454 24.2898 32.3591C23.9009 32.2642 23.5477 32.1245 23.2504 31.948C22.9531 31.7716 22.7176 31.562 22.5576 31.3313C22.3976 31.1006 22.3162 30.8534 22.3181 30.6039C22.3201 30.3544 22.4053 30.1076 22.5689 29.8778C22.7325 29.6479 22.9712 29.4396 23.2713 29.2649C23.5723 29.0862 23.9308 28.9453 24.3253 28.8503C24.7199 28.7553 25.1425 28.7083 25.5682 28.712H25.5684ZM37.488 28.7135C37.4881 28.7135 37.4881 28.7135 37.4882 28.7135C38.2834 28.7342 39.0366 28.9309 39.5994 29.2649C40.1919 29.6196 40.5235 30.0991 40.5217 30.5986C40.5198 31.098 40.1845 31.5767 39.5893 31.9298C38.9941 32.283 38.1874 32.4819 37.3457 32.4829C36.504 32.484 35.6958 32.2872 35.0981 31.9356C34.6446 31.6665 34.3388 31.3224 34.2206 30.9483C34.1024 30.5743 34.1774 30.1878 34.4358 29.8395C34.6941 29.4912 35.1238 29.1974 35.6684 28.9964C36.2131 28.7955 36.8473 28.6969 37.488 28.7135ZM7.53745 33.3161C6.9644 33.3006 6.57483 33.748 6.57483 34.5393V50.2473C6.57483 51.3482 7.32887 52.6541 8.28213 53.2047L22.9177 61.6563C23.871 62.2068 24.625 61.7715 24.625 60.6707V44.9624C24.625 43.8615 23.871 42.5558 22.9177 42.0052L8.28213 33.5536C8.01419 33.3987 7.76167 33.3218 7.53745 33.3159V33.3161ZM43.4738 33.3163C43.2497 33.3222 42.9974 33.3989 42.7293 33.5538L28.0932 42.0054C27.14 42.5559 26.3859 43.8619 26.3859 44.9628V60.6712C26.3859 61.7719 27.14 62.207 28.0932 61.6563L42.7294 53.2051C43.6827 52.6545 44.4365 51.3488 44.4365 50.2479V34.5395C44.4365 33.7484 44.047 33.3011 43.4738 33.3165V33.3163ZM20.0511 41.9416C20.392 41.918 20.7793 42.025 21.1738 42.2518C21.5682 42.4786 21.956 42.8172 22.2977 43.2334C22.6395 43.6496 22.9232 44.1287 23.1202 44.6221C23.3172 45.1156 23.4205 45.606 23.4197 46.0439C23.42 46.3713 23.3623 46.6621 23.2498 46.8997C23.1373 47.1372 22.9723 47.3168 22.7642 47.4282C22.556 47.5395 22.3088 47.5805 22.0367 47.5488C21.7646 47.517 21.473 47.4131 21.1784 47.2431C20.8839 47.073 20.5922 46.8402 20.3201 46.5577C20.0481 46.2753 19.8009 45.9489 19.5927 45.5972C19.3846 45.2455 19.2195 44.8753 19.1071 44.5079C18.9946 44.1405 18.9369 43.7831 18.9372 43.456C18.9364 43.019 19.0389 42.6491 19.2344 42.3833C19.4299 42.1175 19.7115 41.9652 20.0511 41.9416ZM36.5387 44.797C36.5388 44.797 36.5389 44.797 36.5389 44.797C36.8784 44.8206 37.16 44.973 37.3555 45.2388C37.5509 45.5045 37.6534 45.8745 37.6526 46.3114C37.6519 46.9717 37.4154 47.7409 36.9952 48.4499C36.575 49.1588 36.0053 49.7497 35.4114 50.0926C34.8174 50.4355 34.2478 50.5024 33.8275 50.2787C33.4073 50.0549 33.1708 49.5588 33.1701 48.8993C33.1693 48.4614 33.2726 47.971 33.4696 47.4775C33.6666 46.9841 33.9503 46.505 34.2921 46.0888C34.6339 45.6726 35.0216 45.334 35.416 45.1072C35.8105 44.8804 36.1978 44.7734 36.5387 44.797ZM8.89483 47.7236C9.23577 47.6999 9.62305 47.8069 10.0175 48.0337C10.412 48.2606 10.7997 48.5992 11.1415 49.0154C11.4833 49.4316 11.767 49.9107 11.964 50.4041C12.161 50.8976 12.2643 51.3881 12.2634 51.8259C12.2638 52.1534 12.206 52.4442 12.0936 52.6817C11.9811 52.9192 11.8161 53.0988 11.6079 53.2102C11.3997 53.3216 11.1526 53.3626 10.8805 53.3308C10.6084 53.299 10.3167 53.1952 10.0222 53.0251C9.72763 52.8551 9.43598 52.6222 9.16389 52.3398C8.8918 52.0573 8.64462 51.7309 8.43647 51.3792C8.22832 51.0275 8.06329 50.6574 7.95082 50.2899C7.83835 49.9225 7.78064 49.5651 7.781 49.238C7.78017 48.801 7.88264 48.4311 8.07813 48.1652C8.27362 47.8994 8.55527 47.7471 8.89483 47.7236Z" fill="white"/>
</svg>
